<svg width="14" height="14" fill="none" xmlns="http://www.w3.org/2000/svg"><path fill-rule="evenodd" clip-rule="evenodd" d="M13.767 6.625a26.478 26.478 0 00-.413-4.723c-.141-.766-.764-1.365-1.56-1.501A30.512 30.512 0 001.98.4C1.184.537.56 1.136.42 1.902.139 3.462-.002 5.042 0 6.625a26.473 26.473 0 00.413 4.723c.142.766.765 1.365 1.56 1.502 1.622.27 3.265.403 4.91.4a29.63 29.63 0 004.908-.397c.796-.136 1.419-.736 1.56-1.502.115-.63.2-1.277.268-1.931l.012-.012-.01-.01c.094-.91.146-1.835.146-2.773zm-1.318 4.571c-.075.4-.4.714-.816.785a29.595 29.595 0 01-9.5 0 .991.991 0 01-.815-.785A25.214 25.214 0 01.939 7.67l2.549-2.45a.228.228 0 01.167-.064.233.233 0 01.165.072l3.614 3.83c.212.224.509.354.822.361.314.009.617-.108.838-.323l1.298-1.248a.234.234 0 01.325 0l1.949 1.873c-.061.498-.13.992-.217 1.475zm-1.083-3.973l1.407 1.354a25.627 25.627 0 00-.324-6.523.991.991 0 00-.816-.785 28.696 28.696 0 00-4.75-.386 28.695 28.695 0 00-4.749.386.991.991 0 00-.815.785 25.544 25.544 0 00-.397 4.384l1.916-1.842c.221-.214.524-.33.838-.323.313.007.61.137.821.36l3.617 3.831c.043.045.102.07.165.072a.24.24 0 00.167-.064l1.298-1.249a1.17 1.17 0 01.811-.323c.304 0 .596.116.811.323z" fill="#3B566E"/><path fill-rule="evenodd" clip-rule="evenodd" d="M7.343 4.01c0-.995.81-1.802 1.811-1.802.48 0 .941.19 1.281.528.34.338.53.796.53 1.274 0 .995-.81 1.801-1.81 1.801-1.001 0-1.812-.806-1.812-1.801zm.905 0c0 .497.406.9.906.9s.906-.403.906-.9c0-.498-.406-.9-.906-.9s-.906.402-.906.9z" fill="#3B566E"/></svg>