<svg width="14" height="14" viewBox="0 0 14 14" fill="none" xmlns="http://www.w3.org/2000/svg">
<path fill-rule="evenodd" clip-rule="evenodd" d="M12.5263 6.52632H7.47368V1.47368C7.47368 1.21208 7.26161 1 7 1C6.73839 1 6.52632 1.21208 6.52632 1.47368V6.52632H1.47368C1.21208 6.52632 1 6.73839 1 7C1 7.26161 1.21208 7.47368 1.47368 7.47368H6.52632V12.5263C6.52632 12.7879 6.73839 13 7 13C7.26161 13 7.47368 12.7879 7.47368 12.5263V7.47368H12.5263C12.7879 7.47368 13 7.26161 13 7C13 6.73839 12.7879 6.52632 12.5263 6.52632Z" fill="white" stroke="white"/>
</svg>
