<svg width="18" height="18" viewBox="0 0 18 18" fill="none" xmlns="http://www.w3.org/2000/svg">
<g clip-path="url(#clip0)">
<path d="M8.93625 10.917C8.88064 10.7317 8.72922 10.5911 8.53973 10.5509C8.29254 10.4989 8.04532 10.3588 7.84346 10.1569C7.64159 9.95403 7.50149 9.70632 7.44897 9.45963C7.40878 9.27063 7.2677 9.11872 7.08229 9.0636C6.89793 9.01055 6.69606 9.05998 6.56008 9.19645L3.89861 11.858C3.76164 11.9944 3.71116 12.1953 3.76575 12.3807C3.82035 12.566 3.97279 12.7061 4.16126 12.7468C4.42184 12.8019 4.6608 12.9363 4.86576 13.1495C5.06453 13.3401 5.19844 13.578 5.25304 13.837C5.30528 14.0836 5.52234 14.2562 5.76906 14.2562C5.90709 14.2562 6.04202 14.2022 6.14189 14.1017L8.80336 11.4397C8.94037 11.3027 8.99082 11.1024 8.93625 10.917Z" fill="url(#paint0_linear)"/>
<path d="M5.61154 12.4032C5.27372 12.0525 4.84833 11.8146 4.41781 11.724C3.51348 11.4624 2.54429 11.724 1.88613 12.3934C0.990072 13.2787 0.169174 16.6812 0.0136424 17.3543C-0.0275607 17.5314 0.0260174 17.7168 0.15476 17.8456C0.278474 17.9693 0.460408 18.0282 0.646068 17.9867C1.31864 17.8312 4.71238 17.0119 5.60328 16.1168C6.27792 15.4535 6.53541 14.4828 6.28513 13.6202C6.18729 13.1525 5.94935 12.7266 5.61154 12.4032ZM17.5365 0.462715C16.9155 -0.155262 15.9102 -0.153715 15.2933 0.463242C11.9397 3.81683 10.1856 4.96419 8.9054 5.80207C8.20709 6.25836 7.65605 6.61935 7.10192 7.17812C6.42523 7.84141 6.16669 8.81369 6.417 9.67889C6.5128 10.129 6.74867 10.5518 7.0978 10.902C7.44283 11.247 7.8775 11.4886 8.28433 11.5735C9.19143 11.8335 10.1604 11.5705 10.817 10.9035C11.3804 10.3432 11.7409 9.7922 12.1972 9.09491C13.0356 7.81413 14.1829 6.06061 17.5365 2.70705C18.1545 2.08852 18.1545 1.08175 17.5365 0.462715Z" fill="url(#paint1_linear)"/>
</g>
<defs>
<linearGradient id="paint0_linear" x1="4.6474" y1="13.3527" x2="8.05471" y2="9.94542" gradientUnits="userSpaceOnUse">
<stop stop-color="#FFBEF9"/>
<stop offset="1" stop-color="#FFF1FF"/>
</linearGradient>
<linearGradient id="paint1_linear" x1="0.154619" y1="17.8454" x2="17.5369" y2="0.463138" gradientUnits="userSpaceOnUse">
<stop stop-color="#A93AFF"/>
<stop offset="1" stop-color="#FF81FF"/>
</linearGradient>
<clipPath id="clip0">
<rect width="18" height="18" fill="white"/>
</clipPath>
</defs>
</svg>
