<svg width="18" height="18" viewBox="0 0 18 18" fill="none" xmlns="http://www.w3.org/2000/svg">
<path d="M5.61154 12.4032C5.27372 12.0525 4.84833 11.8146 4.41781 11.724C3.51348 11.4624 2.54429 11.724 1.88613 12.3934C0.990072 13.2787 0.169174 16.6812 0.0136424 17.3543C-0.0275607 17.5314 0.0260174 17.7168 0.15476 17.8456C0.278474 17.9693 0.460408 18.0282 0.646068 17.9867C1.31864 17.8312 4.71238 17.0119 5.60328 16.1168C6.27792 15.4535 6.53541 14.4828 6.28513 13.6202C6.18729 13.1525 5.94935 12.7266 5.61154 12.4032ZM17.5365 0.462715C16.9155 -0.155262 15.9102 -0.153715 15.2933 0.463242C11.9397 3.81683 10.1856 4.96419 8.9054 5.80207C8.20709 6.25836 7.65605 6.61935 7.10192 7.17812C6.42523 7.84141 6.16669 8.81369 6.417 9.67889C6.5128 10.129 6.74867 10.5518 7.0978 10.902C7.44283 11.247 7.8775 11.4886 8.28433 11.5735C9.19143 11.8335 10.1604 11.5705 10.817 10.9035C11.3804 10.3432 11.7409 9.7922 12.1972 9.09491C13.0356 7.81413 14.1829 6.06061 17.5365 2.70705C18.1545 2.08852 18.1545 1.08175 17.5365 0.462715Z" fill="url(#paint0_linear)"/>
<defs>
<linearGradient id="paint0_linear" x1="9.53326" y1="17.9999" x2="9.38493" y2="-0.00328343" gradientUnits="userSpaceOnUse">
<stop stop-color="#98B0BD"/>
<stop offset="1" stop-color="#C9E0EE"/>
</linearGradient>
</defs>
</svg>
