<svg width="18" height="18" viewBox="0 0 18 18" fill="none" xmlns="http://www.w3.org/2000/svg">
<path d="M6.85547 0H1.58203C0.709664 0 0 0.709664 0 1.58203V6.85547C0 7.72784 0.709664 8.4375 1.58203 8.4375H6.85547C7.72784 8.4375 8.4375 7.72784 8.4375 6.85547V1.58203C8.4375 0.709664 7.72784 0 6.85547 0ZM16.418 0H11.1445C10.2722 0 9.5625 0.709664 9.5625 1.58203V6.85547C9.5625 7.72784 10.2722 8.4375 11.1445 8.4375H16.418C17.2903 8.4375 18 7.72784 18 6.85547V1.58203C18 0.709664 17.2903 0 16.418 0ZM6.85547 9.5625H1.58203C0.709664 9.5625 0 10.2722 0 11.1445V16.418C0 17.2903 0.709664 18 1.58203 18H6.85547C7.72784 18 8.4375 17.2903 8.4375 16.418V11.1445C8.4375 10.2722 7.72784 9.5625 6.85547 9.5625ZM16.418 9.5625H11.1445C10.2722 9.5625 9.5625 10.2722 9.5625 11.1445V16.418C9.5625 17.2903 10.2722 18 11.1445 18H16.418C17.2903 18 18 17.2903 18 16.418V11.1445C18 10.2722 17.2903 9.5625 16.418 9.5625Z" fill="url(#paint0_linear)"/>
<path d="M12.1992 4.74609H15.3633C15.6548 4.74609 15.8906 4.51023 15.8906 4.21875C15.8906 3.92727 15.6548 3.69141 15.3633 3.69141H12.1992C11.9077 3.69141 11.6719 3.92727 11.6719 4.21875C11.6719 4.51023 11.9077 4.74609 12.1992 4.74609ZM5.80078 3.69141H4.74609V2.63672C4.74609 2.34524 4.51023 2.10938 4.21875 2.10938C3.92727 2.10938 3.69141 2.34524 3.69141 2.63672V3.69141H2.63672C2.34524 3.69141 2.10938 3.92727 2.10938 4.21875C2.10938 4.51023 2.34524 4.74609 2.63672 4.74609H3.69141V5.80078C3.69141 6.09226 3.92727 6.32812 4.21875 6.32812C4.51023 6.32812 4.74609 6.09226 4.74609 5.80078V4.74609H5.80078C6.09226 4.74609 6.32812 4.51023 6.32812 4.21875C6.32812 3.92727 6.09226 3.69141 5.80078 3.69141ZM5.71015 12.2899C5.50417 12.0839 5.17043 12.0839 4.96445 12.2899L4.21875 13.0356L3.47305 12.2899C3.26707 12.0839 2.93333 12.0839 2.72735 12.2899C2.52137 12.4958 2.52137 12.8296 2.72735 13.0356L3.47305 13.7812L2.72735 14.5269C2.52137 14.7329 2.52137 15.0667 2.72735 15.2726C2.93333 15.4786 3.26704 15.4786 3.47305 15.2726L4.21875 14.5269L4.96445 15.2726C5.17043 15.4786 5.50413 15.4786 5.71015 15.2726C5.91613 15.0667 5.91613 14.7329 5.71015 14.5269L4.96445 13.7812L5.71015 13.0356C5.91613 12.8296 5.91613 12.4959 5.71015 12.2899ZM15.3633 12.1992H12.1992C11.9077 12.1992 11.6719 12.4351 11.6719 12.7266C11.6719 13.018 11.9077 13.2539 12.1992 13.2539H15.3633C15.6548 13.2539 15.8906 13.018 15.8906 12.7266C15.8906 12.4351 15.6548 12.1992 15.3633 12.1992ZM15.3633 14.3086H12.1992C11.9077 14.3086 11.6719 14.5445 11.6719 14.8359C11.6719 15.1274 11.9077 15.3633 12.1992 15.3633H15.3633C15.6548 15.3633 15.8906 15.1274 15.8906 14.8359C15.8906 14.5445 15.6548 14.3086 15.3633 14.3086Z" fill="url(#paint1_linear)"/>
<defs>
<linearGradient id="paint0_linear" x1="9" y1="18" x2="9" y2="0" gradientUnits="userSpaceOnUse">
<stop stop-color="#FD3A84"/>
<stop offset="1" stop-color="#FFA68D"/>
</linearGradient>
<linearGradient id="paint1_linear" x1="9" y1="15.4271" x2="9" y2="2.10938" gradientUnits="userSpaceOnUse">
<stop stop-color="#FFC2CC"/>
<stop offset="1" stop-color="#FFF2F4"/>
</linearGradient>
</defs>
</svg>
