<svg width="18" height="18" viewBox="0 0 18 18" fill="none" xmlns="http://www.w3.org/2000/svg">
<path d="M2.92885 11.342C3.53807 10.7327 4.37363 10.4845 5.16739 10.5974L4.79329 10.2233C4.58446 10.0145 4.5845 9.68632 4.79329 9.47753L9.46932 6.29304L12.1596 3.6027L14.0241 3.97557L14.397 5.84005L11.7067 8.53038L8.52217 13.2064C8.31338 13.4152 7.98523 13.4152 7.7764 13.2064L7.40234 12.8323C7.51519 13.626 7.26699 14.4616 6.65777 15.0709C5.62976 16.0989 3.95724 16.0992 2.92888 15.0709C1.90053 14.0425 1.90084 12.37 2.92885 11.342ZM16.3509 3.14033C16.557 2.93421 16.8906 2.93421 17.0967 3.14033L17.8425 3.8861C18.0486 4.09222 18.0486 4.42578 17.8425 4.63187C17.6364 4.83799 17.3028 4.83799 17.0967 4.63187L16.3509 3.8861C16.1448 3.68001 16.1448 3.34645 16.3509 3.14033ZM13.3678 0.902985C13.1617 0.696864 13.1617 0.363301 13.3678 0.157215C13.5739 -0.0489058 13.9075 -0.0489058 14.1136 0.157215L14.8594 0.902985C15.0655 1.10911 15.0655 1.44267 14.8594 1.64875C14.6532 1.85488 14.3197 1.85488 14.1136 1.64875L13.3678 0.902985ZM15.6051 4.63187L16.3509 5.37764C16.557 5.58376 16.557 5.91732 16.3509 6.12341C16.1448 6.32953 15.8112 6.32953 15.6051 6.12341L14.8594 5.37764C14.6532 5.17152 14.6532 4.83799 14.8594 4.63187C15.0655 4.42578 15.399 4.42578 15.6051 4.63187ZM13.3678 3.14033C13.1617 3.34645 12.8281 3.34645 12.6221 3.14033L11.8763 2.39456C11.6702 2.18844 11.6702 1.85488 11.8763 1.64879C12.0824 1.44267 12.416 1.44267 12.6221 1.64879L13.3678 2.39456C13.5739 2.60068 13.5739 2.93421 13.3678 3.14033Z" fill="url(#paint0_linear)"/>
<path d="M12.4961 2.5953C12.526 2.52077 12.5632 2.45366 12.6229 2.39396L14.8603 0.156621C15.0691 -0.052207 15.3972 -0.052207 15.606 0.156621L17.8434 2.39396C18.0522 2.60279 18.0522 2.93091 17.8434 3.13973L15.606 5.37708C15.5464 5.43674 15.4792 5.47404 15.4047 5.50385L14.3979 5.83945L12.1605 3.60211L12.4961 2.5953ZM1.0653 9.47693C1.81856 8.72367 2.69856 8.66401 3.40706 8.6118C3.9067 8.57454 4.23485 8.54473 4.42132 8.35826C4.70471 8.07486 4.77183 7.88843 4.85388 7.62736C4.95826 7.32909 5.07762 6.95619 5.53999 6.49382C6.45732 5.57648 8.03092 5.50941 9.47025 6.29244L6.28576 9.47693C6.07697 9.68572 6.07693 10.0139 6.28576 10.2227L7.7773 11.7142C7.98613 11.9231 8.31428 11.923 8.52307 11.7142L11.7076 8.52975C12.4906 9.96908 12.4235 11.5427 11.5062 12.46C11.0438 12.9224 10.6709 13.0417 10.3726 13.1461C10.1116 13.2282 9.92514 13.2953 9.64174 13.5787C9.45531 13.7651 9.4255 14.0933 9.3882 14.5929C9.33599 15.3014 9.27633 16.1814 8.52307 16.9347C6.85255 18.6052 3.89925 18.2771 1.81108 16.1889C-0.277102 14.1007 -0.605215 11.1474 1.0653 9.47693ZM3.30265 14.6974C4.12298 15.5177 5.46543 15.5177 6.28576 14.6974C7.10613 13.877 7.1061 12.5346 6.28576 11.7142C5.46543 10.8939 4.12302 10.8939 3.30265 11.7142C2.48231 12.5346 2.48231 13.877 3.30265 14.6974Z" fill="url(#paint1_linear)"/>
<defs>
<linearGradient id="paint0_linear" x1="10.0791" y1="15.8409" x2="10.0791" y2="0.00397059" gradientUnits="userSpaceOnUse">
<stop stop-color="#FFE59A"/>
<stop offset="1" stop-color="#FFFFD5"/>
</linearGradient>
<linearGradient id="paint1_linear" x1="9.00188" y1="17.9986" x2="9.00188" y2="0.00133876" gradientUnits="userSpaceOnUse">
<stop stop-color="#FD5900"/>
<stop offset="1" stop-color="#FFDE00"/>
</linearGradient>
</defs>
</svg>
