<svg width="13" height="13" fill="none" xmlns="http://www.w3.org/2000/svg"><path d="M7.888 2.574a.182.182 0 01-.126-.05.17.17 0 01-.052-.12v-.896H5.278v.899a.17.17 0 01-.057.11.182.182 0 01-.24 0 .17.17 0 01-.058-.11V1.335a.168.168 0 01.054-.123.18.18 0 01.13-.05h2.781a.182.182 0 01.126.052.17.17 0 01.05.121v1.072c0 .044-.019.087-.052.118a.18.18 0 01-.124.05zM10.501 11.837H2.494a.182.182 0 01-.124-.048.17.17 0 01-.055-.118V2.839a.17.17 0 01.052-.122.181.181 0 01.253 0 .17.17 0 01.052.122v8.653h7.65V2.84a.167.167 0 01.046-.132.178.178 0 01.132-.056.184.184 0 01.132.056.17.17 0 01.046.132v8.832a.168.168 0 01-.054.118.18.18 0 01-.123.048z" fill="#E26453" stroke="#E26453" stroke-width=".4"/><path d="M11.657 2.832H1.337a.184.184 0 01-.136-.045.173.173 0 01-.059-.127.168.168 0 01.059-.128.18.18 0 01.137-.044h10.319a.18.18 0 01.115.056.17.17 0 010 .232.18.18 0 01-.115.056zM4.401 10.194a.181.181 0 01-.126-.051.17.17 0 01-.052-.122V4.483a.17.17 0 01.052-.122.181.181 0 01.252 0 .17.17 0 01.053.122v5.538a.17.17 0 01-.053.122.181.181 0 01-.126.05zM6.497 10.194a.182.182 0 01-.126-.05.17.17 0 01-.052-.123V4.483a.17.17 0 01.058-.111.182.182 0 01.24 0 .17.17 0 01.057.111v5.538a.167.167 0 01-.051.122.178.178 0 01-.126.05zM8.593 10.194a.182.182 0 01-.125-.051.172.172 0 01-.051-.122V4.483a.17.17 0 01.057-.111.182.182 0 01.24 0 .17.17 0 01.058.111v5.538a.17.17 0 01-.053.122.182.182 0 01-.126.05z" fill="#E26453" stroke="#E26453" stroke-width=".4"/></svg>