<svg width="8" height="14" viewBox="0 0 8 14" fill="none" xmlns="http://www.w3.org/2000/svg">
<path d="M7.27775 9.58194L4.11368 13.8007C3.91386 14.0664 3.46892 14.0664 3.26913 13.8007L0.105133 9.58194C-0.0287773 9.40377 -0.0349297 9.16017 0.087625 8.97426C0.212254 8.78836 0.439891 8.69874 0.655152 8.75436L2.10946 9.11742L2.10946 0.527333C2.10946 0.235853 2.34532 -1.04904e-05 2.63681 -1.04904e-05H4.74611C5.03759 -1.04904e-05 5.27345 0.235853 5.27345 0.527333L5.27345 9.11742L6.72776 8.75436C6.94405 8.69874 7.17168 8.78836 7.29529 8.97426C7.41781 9.16017 7.41162 9.40377 7.27775 9.58194Z" fill="url(#paint0_linear)"/>
<defs>
<linearGradient id="paint0_linear" x1="3.91016" y1="1.79402e-06" x2="3.69142" y2="14" gradientUnits="userSpaceOnUse">
<stop offset="0.0572917" stop-color="#B0FAB3"/>
<stop offset="1" stop-color="#54AE96"/>
</linearGradient>
</defs>
</svg>
