<svg width="21" height="18" fill="none" xmlns="http://www.w3.org/2000/svg"><path d="M19.067 2.6h-2.749c-.347 0-.674-.135-.92-.38L13.815.634A2.153 2.153 0 0012.282 0H8.518C7.94 0 7.395.226 6.986.635L5.4 2.219c-.245.246-.572.381-.92.381H1.734C.777 2.6 0 3.377 0 4.333V15.6c0 .956.777 1.733 1.733 1.733h17.334c.956 0 1.733-.777 1.733-1.733V4.333c0-.956-.777-1.733-1.733-1.733zM10.4 14.733a5.206 5.206 0 01-5.2-5.2c0-2.867 2.333-5.2 5.2-5.2s5.2 2.333 5.2 5.2c0 2.868-2.333 5.2-5.2 5.2zm6.933-7.8a.868.868 0 010-1.733.868.868 0 010 1.733z" fill="#DADBDD"/></svg>