<svg width="14" height="14" fill="none" xmlns="http://www.w3.org/2000/svg"><path d="M11.622 1.483a1.652 1.652 0 00-2.335 0l-.584.588L2.48 8.29l-.014.012c-.003.004-.003.007-.006.007-.007.01-.017.02-.023.03 0 .003-.004.003-.004.006l-.016.027-.007.01-.01.026c0 .003-.003.003-.003.007l-1.38 4.151c-.04.118-.01.25.079.337a.332.332 0 00.34.08L5.585 11.6c.003 0 .003 0 .007-.004a.12.12 0 00.03-.013.011.011 0 00.006-.003l.033-.02c.01-.007.02-.017.03-.023.003-.004.006-.004.006-.007.004-.003.01-.006.014-.013l6.806-6.807a1.653 1.653 0 000-2.335l-.895-.892zm-6.143 9.34L3.181 8.525 8.934 2.77l2.298 2.299-5.753 5.753zM2.857 9.136l2.008 2.008-3.015 1.004 1.007-3.012zm9.194-4.889l-.35.354-2.298-2.299.353-.353a.99.99 0 011.4 0l.899.898a.994.994 0 01-.004 1.4z" fill="#C0D1E0" stroke="#C0D1E0" stroke-width=".5"/></svg>