<svg width="14" height="14" fill="none" xmlns="http://www.w3.org/2000/svg"><path d="M12.902 2.431L11.57 1.098a.333.333 0 00-.471 0l-4 4A.333.333 0 007 5.333v1.334A.333.333 0 007.333 7h1.334a.333.333 0 00.235-.098l4-4a.332.332 0 000-.471zM8.53 6.333h-.862v-.862l3.666-3.666.862.862L8.53 6.333z" fill="#6F8BA4" stroke="#6F8BA4" stroke-width=".3"/><path d="M11.677 6.333a.319.319 0 00-.23.098.338.338 0 00-.094.236v5a.678.678 0 01-.19.47.638.638 0 01-.457.196H2.294a.638.638 0 01-.457-.195.678.678 0 01-.19-.471V4.333c0-.176.068-.346.19-.47a.638.638 0 01.457-.196h3.559a.319.319 0 00.229-.098.339.339 0 000-.471.319.319 0 00-.23-.098H2.295c-.343 0-.672.141-.915.391-.242.25-.379.589-.379.942v7.334c0 .353.137.692.38.942.242.25.571.39.914.391h8.412c.343 0 .672-.141.915-.391.242-.25.379-.589.379-.942v-5a.338.338 0 00-.095-.236.319.319 0 00-.228-.098z" fill="#6F8BA4" stroke="#6F8BA4" stroke-width=".3"/></svg>