<svg width="19" height="19" viewBox="0 0 19 19" fill="none" xmlns="http://www.w3.org/2000/svg">
<path fill-rule="evenodd" clip-rule="evenodd" d="M13.728 13.058L10.1552 9.48528L13.728 5.91253C13.913 5.72755 13.913 5.42763 13.728 5.24264C13.543 5.05766 13.2431 5.05766 13.0581 5.24264L9.48535 8.81539L5.9126 5.24264C5.72762 5.05766 5.4277 5.05766 5.24271 5.24264C5.05773 5.42763 5.05773 5.72755 5.24271 5.91253L8.81546 9.48528L5.24271 13.058C5.05773 13.243 5.05773 13.5429 5.24271 13.7279C5.4277 13.9129 5.72762 13.9129 5.9126 13.7279L9.48535 10.1552L13.0581 13.7279C13.2431 13.9129 13.543 13.9129 13.728 13.7279C13.913 13.5429 13.913 13.243 13.728 13.058Z" fill="#C0D1E1" stroke="#C0D1E1"/>
</svg>
