<svg width="30" height="30" fill="none" xmlns="http://www.w3.org/2000/svg"><path fill-rule="evenodd" clip-rule="evenodd" d="M15 30c8.284 0 15-6.716 15-15 0-8.284-6.716-15-15-15C6.716 0 0 6.716 0 15c0 8.284 6.716 15 15 15z" fill="#7C79FF"/><path fill-rule="evenodd" clip-rule="evenodd" d="M14.927 10.8h7.346c.401 0 .727.313.727.7 0 .387-.326.7-.727.7h-7.346c-.373 1.76-2.07 2.963-3.928 2.782-1.857-.18-3.271-1.685-3.271-3.482 0-1.797 1.414-3.302 3.27-3.482 1.858-.18 3.556 1.021 3.93 2.782zm-5.58 1.504c.339.784 1.134 1.296 2.017 1.296.578 0 1.133-.221 1.542-.615.41-.394.64-.928.64-1.485 0-.85-.532-1.615-1.347-1.94a2.244 2.244 0 00-2.378.455c-.624.6-.81 1.504-.473 2.289zM15.073 17.8c.348-1.628 1.836-2.798 3.563-2.8 1.914 0 3.5 1.428 3.628 3.266.128 1.837-1.246 3.456-3.142 3.703-1.896.246-3.667-.964-4.05-2.769H7.728A.714.714 0 017 18.5c0-.387.326-.7.727-.7h7.346zm1.381.7c0 1.16.977 2.1 2.182 2.1s2.182-.94 2.182-2.1c0-1.16-.977-2.1-2.182-2.1s-2.181.94-2.181 2.1z" fill="#fff"/></svg>