<svg width="18" height="18" viewBox="0 0 18 18" fill="none" xmlns="http://www.w3.org/2000/svg">
<path d="M12.4961 2.5953C12.526 2.52077 12.5632 2.45366 12.6229 2.39396L14.8603 0.156621C15.0691 -0.052207 15.3972 -0.052207 15.606 0.156621L17.8434 2.39396C18.0522 2.60279 18.0522 2.93091 17.8434 3.13973L15.606 5.37708C15.5464 5.43674 15.4792 5.47404 15.4047 5.50385L14.3979 5.83945L12.1605 3.60211L12.4961 2.5953ZM1.0653 9.47693C1.81856 8.72367 2.69856 8.66401 3.40706 8.6118C3.9067 8.57454 4.23485 8.54473 4.42132 8.35826C4.70471 8.07486 4.77183 7.88843 4.85388 7.62736C4.95826 7.32909 5.07762 6.95619 5.53999 6.49382C6.45732 5.57648 8.03092 5.50941 9.47025 6.29244L6.28576 9.47693C6.07697 9.68572 6.07693 10.0139 6.28576 10.2227L7.7773 11.7142C7.98613 11.9231 8.31428 11.923 8.52307 11.7142L11.7076 8.52975C12.4906 9.96908 12.4235 11.5427 11.5062 12.46C11.0438 12.9224 10.6709 13.0417 10.3726 13.1461C10.1116 13.2282 9.92514 13.2953 9.64174 13.5787C9.45531 13.7651 9.4255 14.0933 9.3882 14.5929C9.33599 15.3014 9.27633 16.1814 8.52307 16.9347C6.85255 18.6052 3.89925 18.2771 1.81108 16.1889C-0.277102 14.1007 -0.605215 11.1474 1.0653 9.47693ZM3.30265 14.6974C4.12298 15.5177 5.46543 15.5177 6.28576 14.6974C7.10613 13.877 7.1061 12.5346 6.28576 11.7142C5.46543 10.8939 4.12302 10.8939 3.30265 11.7142C2.48231 12.5346 2.48231 13.877 3.30265 14.6974Z" fill="url(#paint0_linear)"/>
<defs>
<linearGradient id="paint0_linear" x1="8.46675" y1="18" x2="8.61508" y2="-0.00316136" gradientUnits="userSpaceOnUse">
<stop stop-color="#98B0BD"/>
<stop offset="1" stop-color="#C9E0EE"/>
</linearGradient>
</defs>
</svg>
