<svg width="18" height="18" viewBox="0 0 18 18" fill="none" xmlns="http://www.w3.org/2000/svg">
<path d="M6.85547 0H1.58203C0.709664 0 0 0.709664 0 1.58203V6.85547C0 7.72784 0.709664 8.4375 1.58203 8.4375H6.85547C7.72784 8.4375 8.4375 7.72784 8.4375 6.85547V1.58203C8.4375 0.709664 7.72784 0 6.85547 0ZM16.418 0H11.1445C10.2722 0 9.5625 0.709664 9.5625 1.58203V6.85547C9.5625 7.72784 10.2722 8.4375 11.1445 8.4375H16.418C17.2903 8.4375 18 7.72784 18 6.85547V1.58203C18 0.709664 17.2903 0 16.418 0ZM6.85547 9.5625H1.58203C0.709664 9.5625 0 10.2722 0 11.1445V16.418C0 17.2903 0.709664 18 1.58203 18H6.85547C7.72784 18 8.4375 17.2903 8.4375 16.418V11.1445C8.4375 10.2722 7.72784 9.5625 6.85547 9.5625ZM16.418 9.5625H11.1445C10.2722 9.5625 9.5625 10.2722 9.5625 11.1445V16.418C9.5625 17.2903 10.2722 18 11.1445 18H16.418C17.2903 18 18 17.2903 18 16.418V11.1445C18 10.2722 17.2903 9.5625 16.418 9.5625Z" fill="url(#paint0_linear)"/>
<defs>
<linearGradient id="paint0_linear" x1="9.53325" y1="18" x2="9.38492" y2="-0.00316136" gradientUnits="userSpaceOnUse">
<stop stop-color="#98B0BD"/>
<stop offset="1" stop-color="#C9E0EE"/>
</linearGradient>
</defs>
</svg>
