<svg width="163" height="52" fill="none" xmlns="http://www.w3.org/2000/svg">
  <path d="M9.385 18.496L20.829 3.632h11.587L18.1 20.695l15.657 18.974H21.595L9.385 24.04v15.63H0V3.631h9.385v14.864zM46.2 15.15v24.52h-8.666V15.15h8.667zm-9.24-9.415c0-.669.127-1.29.383-1.864a4.886 4.886 0 011.053-1.577 5.05 5.05 0 011.532-1.051A4.893 4.893 0 0141.844.86c.67 0 1.292.128 1.867.383a4.896 4.896 0 011.58 1.051c.447.446.798.972 1.053 1.577a4.53 4.53 0 01.383 1.864c0 .67-.127 1.307-.383 1.912a5.041 5.041 0 01-1.053 1.53 4.895 4.895 0 01-1.58 1.05 4.553 4.553 0 01-1.867.383c-.67 0-1.31-.127-1.916-.382a5.05 5.05 0 01-1.532-1.052 5.041 5.041 0 01-1.053-1.529 4.87 4.87 0 01-.384-1.912zM60.593 27.338c0 .797.144 1.546.431 2.247.287.669.67 1.258 1.15 1.768.51.51 1.1.908 1.77 1.195.703.287 1.453.43 2.251.43a5.42 5.42 0 002.155-.43 4.968 4.968 0 001.772-1.195c.51-.51.91-1.1 1.197-1.768.319-.67.478-1.387.478-2.151 0-.765-.16-1.482-.478-2.15a5.458 5.458 0 00-1.197-1.817 4.967 4.967 0 00-1.772-1.195 5.42 5.42 0 00-2.155-.43c-.766 0-1.5.143-2.202.43-.67.287-1.261.685-1.772 1.195-.479.51-.878 1.1-1.197 1.768a5.057 5.057 0 00-.43 2.103zM71.51 0h8.715v39.67H71.51v-2.725c-1.851 2.326-4.357 3.489-7.517 3.489-1.788 0-3.432-.335-4.932-1.004a12.2 12.2 0 01-3.926-2.772c-1.118-1.179-1.996-2.565-2.634-4.158-.607-1.593-.91-3.314-.91-5.162 0-1.752.288-3.41.862-4.97.607-1.593 1.453-2.98 2.538-4.158a11.668 11.668 0 013.878-2.773c1.532-.7 3.208-1.051 5.028-1.051 3.064 0 5.602 1.067 7.613 3.202V0zM95.215 0v39.67h-8.667V0h8.667zM143.56 27.29c0 .797.143 1.546.431 2.247.287.669.67 1.258 1.149 1.768.511.51 1.101.908 1.772 1.195.702.287 1.452.43 2.25.43.766 0 1.484-.143 2.155-.43a4.961 4.961 0 001.771-1.195c.511-.51.91-1.1 1.197-1.768.32-.701.479-1.434.479-2.199 0-.796-.159-1.53-.479-2.198a5.583 5.583 0 00-1.197-1.769 5.463 5.463 0 00-1.819-1.194 5.305 5.305 0 00-2.107-.43c-.766 0-1.484.159-2.155.477a5.595 5.595 0 00-1.771 1.195 5.668 5.668 0 00-1.245 1.72 5.38 5.38 0 00-.431 2.151zM163 15.15v22.846c0 1.37-.08 2.597-.239 3.68-.16 1.084-.383 2.04-.671 2.868-.383 1.052-.989 2.023-1.819 2.916-.798.924-1.772 1.72-2.921 2.39-1.149.668-2.458 1.194-3.926 1.576-1.437.383-3.001.574-4.693.574-1.915 0-3.671-.239-5.267-.717-1.596-.478-3.001-1.147-4.214-2.007a11.205 11.205 0 01-2.92-2.964 9.608 9.608 0 01-1.533-3.68h9.768c.607 1.625 1.979 2.438 4.118 2.438 1.82 0 3.208-.51 4.166-1.53.99-1.02 1.484-2.437 1.484-4.253v-2.342a15.224 15.224 0 01-1.867 1.53c-.575.382-1.165.7-1.772.955a7.739 7.739 0 01-1.915.526 11.82 11.82 0 01-2.203.191c-1.755 0-3.367-.303-4.836-.908a11.638 11.638 0 01-3.83-2.533c-1.054-1.083-1.884-2.374-2.49-3.871-.575-1.53-.862-3.219-.862-5.067 0-1.88.319-3.616.958-5.21.638-1.624 1.5-3.026 2.585-4.205a11.86 11.86 0 013.927-2.82c1.532-.7 3.192-1.051 4.979-1.051 2.905 0 5.347 1.083 7.326 3.25V15.15H163z" fill="#fff"/>
  <path fill-rule="evenodd" clip-rule="evenodd" d="M116.405 10.868a3 3 0 00-2.996 0l-10.822 6.237a3 3 0 00-1.502 2.6v12.463a3 3 0 001.502 2.6l10.822 6.236a3 3 0 002.996 0l10.823-6.237a3 3 0 001.502-2.599V19.704a3 3 0 00-1.502-2.6l-10.823-6.236zm-1.498 20.379a5.316 5.316 0 005.321-5.31 5.315 5.315 0 00-5.321-5.311 5.315 5.315 0 00-5.32 5.31 5.315 5.315 0 005.32 5.31z" fill="#fff"/>
</svg>
