<svg width="15" height="15" fill="none" xmlns="http://www.w3.org/2000/svg"><g clip-path="url(#clip0)" fill="#fff" stroke="#fff" stroke-width=".5"><path d="M7.475 1.27H1.87a.623.623 0 00-.623.624v11.212c0 .344.279.623.623.623h5.606a.622.622 0 110 1.246H1.87A1.871 1.871 0 010 13.106V1.894C0 .864.838.024 1.869.024h5.606a.622.622 0 110 1.247z"/><path d="M14.814 7.944l-3.787 3.737a.623.623 0 11-.875-.887l2.707-2.671H5.606a.622.622 0 110-1.246h7.253l-2.707-2.671a.623.623 0 11.875-.887l3.787 3.738a.624.624 0 010 .887z"/></g><defs><clipPath id="clip0"><path fill="#fff" transform="matrix(1 0 0 -1 0 15)" d="M0 0h15v15H0z"/></clipPath></defs></svg>