<svg width="123" height="40" fill="none" xmlns="http://www.w3.org/2000/svg"><path d="M7.056 13.932L15.66 2.736h8.712L13.608 15.588 25.38 29.88h-9.144l-9.18-11.772V29.88H0V2.736h7.056v11.196zM34.736 11.412V29.88H28.22V11.412h6.516zM27.788 4.32c0-.504.096-.972.288-1.404a3.68 3.68 0 01.792-1.188c.336-.336.72-.6 1.152-.792a3.673 3.673 0 011.44-.288c.504 0 .972.096 1.404.288a3.68 3.68 0 011.188.792c.336.336.6.732.792 1.188.192.432.288.9.288 1.404 0 .504-.096.984-.288 1.44a3.797 3.797 0 01-.792 1.152 3.68 3.68 0 01-1.188.792c-.432.192-.9.288-1.404.288-.504 0-.984-.096-1.44-.288a3.797 3.797 0 01-1.152-.792c-.336-.336-.6-.72-.792-1.152a3.673 3.673 0 01-.288-1.44zM45.556 20.592c0 .6.108 1.164.325 1.692.215.504.504.948.864 1.332.384.384.828.684 1.332.9a4.425 4.425 0 001.692.324c.575 0 1.116-.108 1.62-.324a3.735 3.735 0 001.331-.9c.385-.384.684-.828.9-1.332a3.72 3.72 0 00.36-1.62 3.72 3.72 0 00-.36-1.62 4.113 4.113 0 00-.9-1.368 3.735 3.735 0 00-1.331-.9 4.069 4.069 0 00-1.62-.324c-.576 0-1.128.108-1.657.324a4.212 4.212 0 00-1.331.9 5.2 5.2 0 00-.9 1.332 3.816 3.816 0 00-.325 1.584zM53.766 0h6.551v29.88h-6.552v-2.052c-1.392 1.752-3.276 2.628-5.652 2.628-1.343 0-2.58-.252-3.708-.756a9.173 9.173 0 01-2.952-2.088 9.803 9.803 0 01-1.98-3.132c-.456-1.2-.684-2.496-.684-3.888 0-1.32.217-2.568.649-3.744a9.63 9.63 0 011.907-3.132 8.774 8.774 0 012.916-2.088c1.153-.528 2.413-.792 3.78-.792 2.304 0 4.212.804 5.724 2.412V0zM71.587 0v29.88H65.07V0h6.516zM107.934 20.556c0 .6.108 1.164.324 1.692.216.504.504.948.864 1.332.384.384.828.684 1.332.9a4.425 4.425 0 001.692.324c.576 0 1.116-.108 1.62-.324a3.735 3.735 0 001.332-.9c.384-.384.684-.828.9-1.332.24-.528.36-1.08.36-1.656 0-.6-.12-1.152-.36-1.656a4.212 4.212 0 00-.9-1.332 4.113 4.113 0 00-1.368-.9 3.98 3.98 0 00-1.584-.324 3.72 3.72 0 00-1.62.36 4.212 4.212 0 00-1.332.9c-.384.36-.696.792-.936 1.296a4.069 4.069 0 00-.324 1.62zm14.616-9.144V28.62c0 1.032-.06 1.956-.18 2.772-.12.816-.288 1.536-.504 2.16a6.462 6.462 0 01-1.368 2.196 8.564 8.564 0 01-2.196 1.8c-.864.504-1.848.9-2.952 1.188-1.08.288-2.256.432-3.528.432-1.44 0-2.76-.18-3.96-.54-1.2-.36-2.256-.864-3.168-1.512a8.436 8.436 0 01-2.196-2.232 7.246 7.246 0 01-1.152-2.772h7.344c.456 1.224 1.488 1.836 3.096 1.836 1.368 0 2.412-.384 3.132-1.152.744-.768 1.116-1.836 1.116-3.204v-1.764c-.48.456-.948.84-1.404 1.152a7.989 7.989 0 01-1.332.72 5.813 5.813 0 01-1.44.396 8.866 8.866 0 01-1.656.144c-1.32 0-2.532-.228-3.636-.684a8.75 8.75 0 01-2.88-1.908c-.792-.816-1.416-1.788-1.872-2.916-.432-1.152-.648-2.424-.648-3.816 0-1.416.24-2.724.72-3.924.48-1.224 1.128-2.28 1.944-3.168a8.922 8.922 0 012.952-2.124c1.152-.528 2.4-.792 3.744-.792 2.184 0 4.02.816 5.508 2.448v-1.944h6.516z" fill="#504DE5"/><path fill-rule="evenodd" clip-rule="evenodd" d="M87.892 8.402a3 3 0 00-3 0L77.5 12.67a3 3 0 00-1.5 2.598v8.536a3 3 0 001.5 2.598l7.392 4.268a3 3 0 003 0l7.393-4.268a3 3 0 001.5-2.598v-8.536a3 3 0 00-1.5-2.598l-7.393-4.268zm-1.5 15.134a4 4 0 100-8 4 4 0 000 8z" fill="#504DE5"/></svg>