<svg width="8" height="14" viewBox="0 0 8 14" fill="none" xmlns="http://www.w3.org/2000/svg">
<path d="M0.105064 4.41806L3.26913 0.19931C3.46896 -0.0664365 3.91389 -0.0664365 4.11369 0.19931L7.27768 4.41806C7.41159 4.59623 7.41774 4.83983 7.29519 5.02573C7.17056 5.21164 6.94292 5.30125 6.72766 5.24564L5.27335 4.88258L5.27335 13.4727C5.27335 13.7641 5.03749 14 4.74601 14H2.6367C2.34522 14 2.10936 13.7641 2.10936 13.4727L2.10936 4.88258L0.655048 5.24564C0.438767 5.30125 0.211131 5.21164 0.0875216 5.02573C-0.0349979 4.83983 -0.028811 4.59623 0.105064 4.41806Z" fill="url(#paint0_linear)"/>
<defs>
<linearGradient id="paint0_linear" x1="3.47266" y1="14" x2="3.69139" y2="8.07098e-06" gradientUnits="userSpaceOnUse">
<stop offset="0.0572917" stop-color="#B0FAB3"/>
<stop offset="1" stop-color="#54AE96"/>
</linearGradient>
</defs>
</svg>
